<svg width="122" height="24" viewBox="0 0 122 24" fill="none" xmlns="http://www.w3.org/2000/svg">
<path d="M20.0783 5H0.925655C0.680804 5.00163 0.446439 5.09804 0.273224 5.2684C0.10001 5.43875 0.00186366 5.66937 1.05978e-07 5.91039C-5.46683e-05 6.0222 0.0211234 6.13304 0.0624465 6.23719L0.206315 6.48074L9.60595 22.3776L9.7933 22.6935C9.88371 22.7916 9.9943 22.8697 10.1177 22.9225C10.2412 22.9754 10.3746 23.0018 10.5092 22.9999C10.6438 22.9981 10.7764 22.9681 10.8983 22.9119C11.0202 22.8557 11.1286 22.7746 11.2162 22.674L11.3743 22.4025L20.781 6.49631L20.9454 6.21774C20.9823 6.11801 21.0007 6.01261 21 5.90649C20.9973 5.66676 20.8993 5.4376 20.727 5.26814C20.5547 5.09868 20.3218 5.00243 20.0783 5ZM10.4486 14.6921L7.1515 9.36364H13.7449L10.4486 14.6921Z" fill="white"/>
<path d="M35.52 5.192V23H32.64V21.344C32.144 21.952 31.528 22.408 30.792 22.712C30.072 23.016 29.272 23.168 28.392 23.168C27.16 23.168 26.048 22.896 25.056 22.352C24.08 21.808 23.312 21.04 22.752 20.048C22.192 19.04 21.912 17.888 21.912 16.592C21.912 15.296 22.192 14.152 22.752 13.16C23.312 12.168 24.08 11.4 25.056 10.856C26.048 10.312 27.16 10.04 28.392 10.04C29.24 10.04 30.016 10.184 30.72 10.472C31.424 10.76 32.024 11.192 32.52 11.768V5.192H35.52ZM28.752 20.6C29.472 20.6 30.12 20.44 30.696 20.12C31.272 19.784 31.728 19.312 32.064 18.704C32.4 18.096 32.568 17.392 32.568 16.592C32.568 15.792 32.4 15.088 32.064 14.48C31.728 13.872 31.272 13.408 30.696 13.088C30.12 12.752 29.472 12.584 28.752 12.584C28.032 12.584 27.384 12.752 26.808 13.088C26.232 13.408 25.776 13.872 25.44 14.48C25.104 15.088 24.936 15.792 24.936 16.592C24.936 17.392 25.104 18.096 25.44 18.704C25.776 19.312 26.232 19.784 26.808 20.12C27.384 20.44 28.032 20.6 28.752 20.6ZM39.4446 10.184H42.4446V23H39.4446V10.184ZM40.9566 8.072C40.4126 8.072 39.9566 7.904 39.5886 7.568C39.2206 7.216 39.0366 6.784 39.0366 6.272C39.0366 5.76 39.2206 5.336 39.5886 5C39.9566 4.648 40.4126 4.472 40.9566 4.472C41.5006 4.472 41.9566 4.64 42.3246 4.976C42.6926 5.296 42.8766 5.704 42.8766 6.2C42.8766 6.728 42.6926 7.176 42.3246 7.544C41.9726 7.896 41.5166 8.072 40.9566 8.072ZM53.5821 22.304C53.2301 22.592 52.7981 22.808 52.2861 22.952C51.7901 23.096 51.2621 23.168 50.7021 23.168C49.2941 23.168 48.2061 22.8 47.4381 22.064C46.6701 21.328 46.2861 20.256 46.2861 18.848V7.352H49.2861V10.28H52.7181V12.68H49.2861V18.776C49.2861 19.4 49.4381 19.88 49.7421 20.216C50.0621 20.536 50.5021 20.696 51.0621 20.696C51.7341 20.696 52.2941 20.52 52.7421 20.168L53.5821 22.304ZM61.3999 23.168C60.1039 23.168 58.9359 22.888 57.8959 22.328C56.8559 21.768 56.0399 20.992 55.4479 20C54.8719 18.992 54.5839 17.856 54.5839 16.592C54.5839 15.328 54.8719 14.2 55.4479 13.208C56.0399 12.216 56.8559 11.44 57.8959 10.88C58.9359 10.32 60.1039 10.04 61.3999 10.04C62.7119 10.04 63.8879 10.32 64.9279 10.88C65.9679 11.44 66.7759 12.216 67.3519 13.208C67.9439 14.2 68.2399 15.328 68.2399 16.592C68.2399 17.856 67.9439 18.992 67.3519 20C66.7759 20.992 65.9679 21.768 64.9279 22.328C63.8879 22.888 62.7119 23.168 61.3999 23.168ZM61.3999 20.6C62.5039 20.6 63.4159 20.232 64.1359 19.496C64.8559 18.76 65.2159 17.792 65.2159 16.592C65.2159 15.392 64.8559 14.424 64.1359 13.688C63.4159 12.952 62.5039 12.584 61.3999 12.584C60.2959 12.584 59.3839 12.952 58.6639 13.688C57.9599 14.424 57.6079 15.392 57.6079 16.592C57.6079 17.792 57.9599 18.76 58.6639 19.496C59.3839 20.232 60.2959 20.6 61.3999 20.6ZM75.0686 23.168C74.0286 23.168 73.0126 23.032 72.0206 22.76C71.0286 22.488 70.2366 22.144 69.6446 21.728L70.7966 19.448C71.3726 19.832 72.0606 20.144 72.8606 20.384C73.6766 20.608 74.4766 20.72 75.2606 20.72C77.0526 20.72 77.9486 20.248 77.9486 19.304C77.9486 18.856 77.7166 18.544 77.2526 18.368C76.8046 18.192 76.0766 18.024 75.0686 17.864C74.0126 17.704 73.1486 17.52 72.4766 17.312C71.8206 17.104 71.2446 16.744 70.7486 16.232C70.2686 15.704 70.0286 14.976 70.0286 14.048C70.0286 12.832 70.5326 11.864 71.5406 11.144C72.5646 10.408 73.9406 10.04 75.6686 10.04C76.5486 10.04 77.4286 10.144 78.3086 10.352C79.1886 10.544 79.9086 10.808 80.4686 11.144L79.3166 13.424C78.2286 12.784 77.0046 12.464 75.6446 12.464C74.7646 12.464 74.0926 12.6 73.6286 12.872C73.1806 13.128 72.9566 13.472 72.9566 13.904C72.9566 14.384 73.1966 14.728 73.6766 14.936C74.1726 15.128 74.9326 15.312 75.9566 15.488C76.9806 15.648 77.8206 15.832 78.4766 16.04C79.1326 16.248 79.6926 16.6 80.1566 17.096C80.6366 17.592 80.8766 18.296 80.8766 19.208C80.8766 20.408 80.3566 21.368 79.3166 22.088C78.2766 22.808 76.8606 23.168 75.0686 23.168ZM89.5562 20.624C90.9482 20.624 92.1082 20.16 93.0362 19.232L94.6202 21.08C94.0602 21.768 93.3402 22.288 92.4602 22.64C91.5802 22.992 90.5882 23.168 89.4842 23.168C88.0762 23.168 86.8362 22.888 85.7642 22.328C84.6922 21.768 83.8602 20.992 83.2682 20C82.6922 18.992 82.4042 17.856 82.4042 16.592C82.4042 15.344 82.6842 14.224 83.2442 13.232C83.8202 12.224 84.6042 11.44 85.5962 10.88C86.6042 10.32 87.7402 10.04 89.0042 10.04C90.2042 10.04 91.2922 10.304 92.2682 10.832C93.2602 11.344 94.0442 12.088 94.6202 13.064C95.1962 14.024 95.4842 15.152 95.4842 16.448L85.6682 18.368C85.9722 19.104 86.4602 19.664 87.1322 20.048C87.8042 20.432 88.6122 20.624 89.5562 20.624ZM89.0042 12.44C87.9002 12.44 87.0042 12.8 86.3162 13.52C85.6442 14.24 85.3082 15.208 85.3082 16.424V16.448L92.5562 15.056C92.3482 14.272 91.9242 13.64 91.2842 13.16C90.6602 12.68 89.9002 12.44 89.0042 12.44ZM102.59 23.168C101.262 23.168 100.222 22.808 99.4704 22.088C98.7344 21.352 98.3664 20.32 98.3664 18.992V5.192H101.366V18.776C101.366 20.056 101.966 20.696 103.166 20.696C103.566 20.696 103.926 20.616 104.246 20.456L104.39 22.856C103.83 23.064 103.23 23.168 102.59 23.168ZM110.653 23.168C109.325 23.168 108.285 22.808 107.533 22.088C106.797 21.352 106.429 20.32 106.429 18.992V5.192H109.429V18.776C109.429 20.056 110.029 20.696 111.229 20.696C111.629 20.696 111.989 20.616 112.309 20.456L112.453 22.856C111.893 23.064 111.293 23.168 110.653 23.168ZM116.061 23.168C115.517 23.168 115.053 22.984 114.669 22.616C114.285 22.232 114.093 21.752 114.093 21.176C114.093 20.584 114.277 20.104 114.645 19.736C115.029 19.368 115.501 19.184 116.061 19.184C116.621 19.184 117.085 19.368 117.453 19.736C117.837 20.104 118.029 20.584 118.029 21.176C118.029 21.752 117.837 22.232 117.453 22.616C117.069 22.984 116.605 23.168 116.061 23.168Z" fill="white"/>
</svg>
